<svg xmlns="http://www.w3.org/2000/svg" width="11.5" height="11.5" viewBox="0 0 11.5 11.5">
  <g id="sales" transform="translate(-6.25 -6.25)">
    <path id="Path_16" data-name="Path 16" d="M7.05,17.7a.741.741,0,0,1-.53-.22.75.75,0,0,1,0-1.06l9.9-9.9a.75.75,0,1,1,1.06,1.06l-9.9,9.9a.741.741,0,0,1-.53.22Z" fill="#fff"/>
    <path id="Path_17" data-name="Path 17" d="M8.5,10.75a2.25,2.25,0,1,1,1.591-.659A2.25,2.25,0,0,1,8.5,10.75Zm0-3a.75.75,0,1,0,.75.75.76.76,0,0,0-.75-.75Z" fill="#fff"/>
    <path id="Path_18" data-name="Path 18" d="M15.5,17.75a2.25,2.25,0,1,1,1.591-.659A2.25,2.25,0,0,1,15.5,17.75Zm0-3a.75.75,0,1,0,.75.75.76.76,0,0,0-.75-.75Z" fill="#fff"/>
  </g>
</svg>
