<svg xmlns="http://www.w3.org/2000/svg" width="18px" height="18px" viewBox="0 0 20 20">
  <path id="Path_27" data-name="Path 27" d="M20.4,14.163,18.125,5.97a8.15,8.15,0,0,0-15.81.412L.556,14.295a2.623,2.623,0,0,0,2.56,3.191H6.27a4.372,4.372,0,0,0,8.568,0h3.034A2.623,2.623,0,0,0,20.4,14.163Zm-9.844,5.071a2.623,2.623,0,0,1-2.462-1.749h4.924a2.623,2.623,0,0,1-2.462,1.749Zm8.013-3.843a.868.868,0,0,1-.7.345H3.116a.874.874,0,0,1-.853-1.064L4.021,6.761a6.4,6.4,0,0,1,12.415-.325l2.273,8.193a.868.868,0,0,1-.143.763Z" transform="translate(-0.494 0.004)" fill="#fff"/>
</svg>
